<svg width="303" height="341" viewBox="0 0 303 341" fill="none" xmlns="http://www.w3.org/2000/svg">
  <path d="M151.463 1.39038L0 69.6784L33.1797 272.644L151.463 340.932L269.747 272.644L302.927 69.6784L151.463 1.39038ZM182.473 242.237L173.131 215.537H129.072L119.73 242.237H66.5402L100.745 138.117H64.491V93.968H188.953L238.556 242.237H182.473Z" fill="#CC2B39"/>
  <path d="M131.031 185.551H171.895L152.307 126.816L131.031 185.551Z" fill="#CC2B39"/>
  <path d="M302.875 69.8151L151.175 0L151.463 341L269.743 272.634L302.875 69.8151Z" fill="black" fill-opacity="0.19"/>
  <path d="M64.3721 138.407V94.1621H188.939L238.555 242.786H182.452L173.072 216.01H128.979L119.599 242.786H66.3884L100.576 138.407H64.3721ZM152.209 127.082L130.907 185.987H171.845L152.209 127.082Z" fill="white"/>
</svg>
