<svg width="324" height="28" viewBox="0 0 324 28" fill="none" xmlns="http://www.w3.org/2000/svg">
  <path fill-rule="evenodd" clip-rule="evenodd" d="M0 0.523845H17.5467V5.01395H5.03515V11.2627H16.4787V15.7528H5.03515V22.226H17.7756V26.7161H0V0.523845ZM31.6629 19.3074V15.0418H42.9538V19.3074H31.6629ZM67.1021 0C72.8239 0 76.9817 3.06824 76.9817 8.30669V9.42921H72.0992V8.64344C72.0992 5.65004 70.1537 4.34043 67.1021 4.34043C64.432 4.34043 62.7918 5.65004 62.7918 7.44608C62.7918 9.91564 65.1567 10.3646 68.3609 11.0756L68.7042 11.1504C74.1971 12.3478 77.4395 14.2561 77.4395 19.0081C77.4395 24.284 73.2435 27.2399 67.5599 27.2399C61.0371 27.2399 56.8411 23.7975 56.8411 17.6611V16.8379H61.8V17.5114C61.8 20.7293 63.6691 22.8995 67.7125 22.8995C70.9548 22.8995 72.4806 21.2157 72.4806 19.27C72.4806 16.9875 70.4971 16.2392 66.9877 15.4908L66.6444 15.416C61.1134 14.2187 57.8329 12.3478 57.8329 7.59575C57.8329 2.91857 61.9144 0 67.1021 0ZM141.441 0.523845H146.477V17.6611C146.477 20.8416 148.422 22.8247 151.893 22.8247C155.364 22.8247 157.31 20.8416 157.31 17.6611V0.523845H162.345V17.4366C162.345 23.4234 158.569 27.2399 151.893 27.2399C145.218 27.2399 141.441 23.4234 141.441 17.4366V0.523845ZM181.191 0.523845H189.278L196.678 26.7161H191.49L189.888 20.879H180.581L178.979 26.7161H173.791L181.191 0.523845ZM181.763 16.3889H188.706L185.463 4.63977H185.006L181.763 16.3889ZM228.951 8.79311C228.951 12.7594 226.663 15.6031 223.229 16.6134L228.646 26.7161H223.077L218.156 17.025H213.693V26.7161H208.658V0.561263H220.407C225.442 0.561263 228.951 3.81659 228.951 8.79311ZM213.693 5.05136V12.5349H219.911C222.314 12.5349 223.916 11.0756 223.916 8.79311C223.916 6.51065 222.314 5.05136 219.911 5.05136H213.693ZM241.847 0.523845H259.393V5.01395H246.882V11.2627H258.325V15.7528H246.882V22.226H259.622V26.7161H241.847V0.523845Z" fill="white"/>
  <path d="M119.142 0.474854C119.845 0.474854 120.414 1.03327 120.414 1.7221L120.414 22.1033L125.483 22.1042C126.185 22.1042 126.754 22.6626 126.754 23.3514V25.9544C126.754 26.6432 126.185 27.2016 125.483 27.2016H94.4218C93.7195 27.2016 93.1503 26.6432 93.1503 25.9544V1.7221C93.1503 1.03327 93.7195 0.474854 94.4218 0.474854H119.142ZM98.3271 5.55294V22.1235H115.237L115.237 5.55294H98.3271Z" fill="url(#paint0_linear_307_3)"/>
  <path d="M274.192 24.3607C274.192 25.8146 275.266 26.8687 276.749 26.8687C278.194 26.8687 279.305 25.8146 279.305 24.3607C279.305 22.9067 278.194 21.8526 276.749 21.8526C275.266 21.8526 274.192 22.9067 274.192 24.3607ZM289.922 3.06047C289.922 4.40536 290.922 5.38675 292.293 5.38675C293.664 5.38675 294.702 4.40536 294.702 3.06047C294.702 1.75192 293.664 0.770508 292.293 0.770508C290.922 0.770508 289.922 1.75192 289.922 3.06047ZM293.738 8.62177H290.885V26.3598H293.738V8.62177ZM304.911 17.4908C304.911 22.9794 308.69 26.8687 314.137 26.8687C319.621 26.8687 323.401 22.9794 323.401 17.4908C323.401 11.9658 319.621 8.1129 314.137 8.1129C308.69 8.1129 304.911 11.9658 304.911 17.4908ZM307.727 17.4908C307.727 13.5288 310.246 10.6209 314.137 10.6209C318.028 10.6209 320.548 13.4198 320.548 17.4908C320.548 21.5255 318.028 24.3607 314.137 24.3607C310.246 24.3607 307.727 21.6345 307.727 17.4908Z" fill="white"/>
  <defs>
    <linearGradient id="paint0_linear_307_3" x1="93.1503" y1="-0.688296" x2="112" y2="30.851" gradientUnits="userSpaceOnUse">
      <stop stop-color="#272A7F"/>
      <stop offset="1" stop-color="#35DCD8"/>
    </linearGradient>
  </defs>
</svg>
