<svg width="295" height="171" viewBox="0 0 295 171" fill="none" xmlns="http://www.w3.org/2000/svg">
  <rect x="76" y="21" width="64" height="69" fill="white"/>
  <path d="M16.5502 124.1V129.14H13.6202V141.12C13.5702 142.42 13.4302 143.33 13.2002 143.86C12.9702 144.39 12.5502 144.89 11.9502 145.36C11.3502 145.83 10.5902 146.18 9.69017 146.43C8.78017 146.67 7.96017 146.83 7.23017 146.91C6.50017 146.99 5.52017 147.03 4.30017 147.03V141.99C4.99017 142.01 5.54016 141.98 5.95016 141.92C6.36016 141.86 6.72017 141.76 7.00017 141.62C7.29017 141.48 7.52016 141.28 7.70016 141.02C7.88016 140.76 8.02017 140.28 8.11017 139.58V124.1H16.5502Z" fill="white"/>
  <path d="M25.47 124.1V134.11C25.42 135.25 25.64 136.04 26.13 136.49C26.61 136.94 27.37 137.17 28.4 137.21C29.23 137.19 29.92 136.95 30.48 136.48C31.03 136.01 31.3 135.22 31.27 134.11V124.1H36.78V134.03C36.76 135.44 36.52 136.56 36.08 137.4C35.64 138.24 35.08 138.94 34.4 139.5C33.72 140.06 32.88 140.5 31.86 140.81C30.84 141.12 29.7 141.29 28.45 141.33C27.41 141.31 26.35 141.16 25.28 140.9C24.21 140.64 23.27 140.23 22.47 139.66C21.67 139.09 21.05 138.37 20.62 137.49C20.19 136.61 19.97 135.45 19.97 134.03V124.09H25.47V124.1Z" fill="white"/>
  <path d="M42.88 141.03V124.1H48.3899L53.4299 130.43V124.1H58.9398V141.03H53.4299L48.3899 134.7V141.03H42.88Z" fill="white"/>
  <path d="M64.6899 124.1H70.2V141.03H64.6899V124.1Z" fill="white"/>
  <path d="M95.4998 132.66C95.4998 134.51 95.1098 136.09 94.3398 137.4C93.5698 138.71 92.4498 139.69 90.9798 140.34C89.5098 141 87.7699 141.32 85.7299 141.32C83.6999 141.32 81.95 140.99 80.5 140.33C79.04 139.67 77.94 138.69 77.19 137.4C76.4401 136.11 76.0601 134.53 76.0601 132.66C76.0601 131.25 76.2701 130 76.7 128.93C77.13 127.86 77.76 126.95 78.59 126.22C79.42 125.49 80.43 124.93 81.64 124.55C82.84 124.17 84.2099 123.98 85.7299 123.98C87.7499 123.98 89.4999 124.31 90.9698 124.98C92.4398 125.65 93.5598 126.63 94.3298 127.93C95.1098 129.23 95.4998 130.8 95.4998 132.66ZM82.08 132.7C82.08 133.79 82.32 134.73 82.81 135.54C83.2999 136.34 84.2599 136.75 85.6999 136.75C86.8099 136.75 87.6399 136.54 88.1899 136.12C88.7399 135.7 89.0899 135.22 89.2199 134.67C89.3599 134.13 89.4499 133.47 89.4999 132.71C89.4499 131.62 89.1899 130.68 88.7099 129.87C88.2299 129.06 87.2299 128.66 85.6999 128.66C83.2899 128.65 82.08 130 82.08 132.7Z" fill="white"/>
  <path d="M101.59 141.03V124.1H112.61C113.97 124.22 115.09 124.58 115.96 125.18C116.83 125.77 117.48 126.57 117.88 127.57C118.19 129.07 118.21 130.23 117.93 131.04C117.65 131.85 117.16 132.53 116.45 133.08C115.75 133.63 114.74 134.06 113.43 134.37L114.7 135.99H119.76V141.03H113.08L107.71 135.44V141.03H101.59ZM107.71 128.32V131.44H111.98C112.21 131.44 112.45 131.36 112.72 131.19C112.99 131.02 113.13 130.6 113.14 129.92C113.1 129.27 112.94 128.84 112.67 128.64C112.39 128.43 112.16 128.33 111.97 128.33H107.71V128.32Z" fill="white"/>
  <path d="M139.59 129.14V124.1H153.8L159.46 141.03H153.06L151.99 137.98H146.96L145.89 141.03H139.82L143.72 129.14H139.59ZM149.61 127.85L147.18 134.56H151.85L149.61 127.85Z" fill="white"/>
  <path d="M164.5 141.03V124.1H170.01L175.05 130.43V124.1H180.56V141.03H175.05L170.01 134.7V141.03H164.5Z" fill="white"/>
  <path d="M197.94 135.99V132.57H203.24V141.03H195.74C193.9 141.03 192.24 140.7 190.76 140.05C189.27 139.4 188.1 138.42 187.25 137.11C186.39 135.8 185.97 134.21 185.97 132.32C185.97 130.99 186.23 129.81 186.74 128.76C187.25 127.72 187.96 126.85 188.87 126.16C189.78 125.47 190.82 124.95 191.99 124.61C193.17 124.27 194.42 124.1 195.75 124.1H200.39H203.25V129.14H197.95C196.76 129.14 195.88 129.17 195.31 129.25C194.74 129.32 194.23 129.44 193.79 129.6C193.34 129.76 192.95 130.05 192.61 130.46C192.27 130.87 192.07 131.59 192.01 132.62C192.05 133.62 192.25 134.34 192.61 134.77C192.97 135.2 193.41 135.49 193.92 135.63C194.44 135.77 194.97 135.87 195.51 135.92C196.05 135.96 196.86 135.99 197.94 135.99Z" fill="white"/>
  <path d="M214.15 124.1V134.11C214.1 135.25 214.32 136.04 214.81 136.49C215.29 136.94 216.05 137.17 217.08 137.21C217.91 137.19 218.6 136.95 219.16 136.48C219.71 136.01 219.98 135.22 219.95 134.11V124.1H225.46V134.03C225.44 135.44 225.2 136.56 224.76 137.4C224.32 138.24 223.76 138.94 223.08 139.5C222.4 140.06 221.56 140.5 220.54 140.81C219.52 141.12 218.38 141.29 217.13 141.33C216.09 141.31 215.03 141.16 213.96 140.9C212.89 140.64 211.95 140.23 211.15 139.66C210.35 139.09 209.73 138.37 209.3 137.49C208.87 136.61 208.65 135.45 208.65 134.03V124.09H214.15V124.1Z" fill="white"/>
  <path d="M231.55 141.03V124.1H237.06V135.99H246.23V141.03H231.55Z" fill="white"/>
  <path d="M250.57 141.03L256.14 124.1H264.54L270.2 141.03H263.8L262.73 137.98H257.7L256.63 141.03H250.57ZM260.36 127.85L257.93 134.56H262.6L260.36 127.85Z" fill="white"/>
  <path d="M275.26 141.03V124.1H286.28C287.64 124.22 288.76 124.58 289.63 125.18C290.5 125.77 291.15 126.57 291.55 127.57C291.86 129.07 291.88 130.23 291.6 131.04C291.32 131.85 290.83 132.53 290.12 133.08C289.42 133.63 288.41 134.06 287.1 134.37L288.37 135.99H293.43V141.03H286.75L281.38 135.44V141.03H275.26ZM281.38 128.32V131.44H285.65C285.88 131.44 286.12 131.36 286.39 131.19C286.66 131.02 286.8 130.6 286.81 129.92C286.77 129.27 286.61 128.84 286.34 128.64C286.06 128.43 285.83 128.33 285.64 128.33H281.38V128.32Z" fill="white"/>
  <path d="M3.51988 169.84V157.95H-0.00012207V152.91H13.4999C14.8499 152.91 16.0399 153.09 17.0799 153.45C18.1099 153.81 18.9799 154.29 19.6899 154.9C20.3999 155.51 20.9899 156.33 21.4699 157.37C21.9399 158.41 22.1799 159.76 22.1799 161.43C22.0899 162.97 21.8399 164.28 21.4099 165.36C20.9799 166.44 20.4099 167.29 19.6999 167.92C18.9899 168.55 18.1199 169.03 17.0899 169.37C16.0599 169.71 14.7799 169.87 13.2299 169.84H3.51988ZM9.1699 157.11V165.62H12.3899C13.1199 165.62 13.6999 165.47 14.1499 165.16C14.5999 164.85 14.9599 164.46 15.2399 163.98C15.5199 163.5 15.6999 162.63 15.7799 161.38C15.7599 160.24 15.5999 159.4 15.3099 158.85C15.0199 158.31 14.6399 157.88 14.1799 157.57C13.7199 157.26 13.1199 157.11 12.3699 157.11H9.1699Z" fill="white"/>
  <path d="M25.4 169.84V152.91H39.91V157.95H30.91V159.9H36.72V162.85H30.91V164.8H41.34V169.84H25.4Z" fill="white"/>
  <path d="M48.5599 152.91L52.4099 165.91L56.2999 152.91H63.0898L57.0499 169.84H48.0599L42.11 152.91H48.5599Z" fill="white"/>
  <path d="M65.25 169.84V152.91H79.7597V157.95H70.7599V159.9H76.5698V162.85H70.7599V164.8H81.1897V169.84H65.25Z" fill="white"/>
  <path d="M83.5999 169.84V152.91H89.11V164.8H98.2802V169.84H83.5999Z" fill="white"/>
  <path d="M120.23 161.47C120.23 163.32 119.84 164.9 119.07 166.21C118.3 167.52 117.18 168.5 115.71 169.15C114.24 169.81 112.5 170.13 110.46 170.13C108.43 170.13 106.68 169.8 105.23 169.14C103.77 168.48 102.67 167.5 101.92 166.21C101.17 164.92 100.79 163.34 100.79 161.47C100.79 160.06 101 158.81 101.43 157.74C101.86 156.67 102.49 155.76 103.32 155.03C104.15 154.3 105.16 153.74 106.37 153.36C107.57 152.98 108.94 152.79 110.46 152.79C112.48 152.79 114.23 153.12 115.7 153.79C117.17 154.46 118.29 155.44 119.06 156.74C119.84 158.04 120.23 159.61 120.23 161.47ZM106.81 161.51C106.81 162.6 107.05 163.54 107.54 164.35C108.03 165.16 108.99 165.56 110.43 165.56C111.54 165.56 112.37 165.35 112.92 164.93C113.47 164.51 113.82 164.03 113.95 163.48C114.09 162.94 114.18 162.28 114.23 161.52C114.18 160.43 113.92 159.49 113.44 158.68C112.96 157.87 111.96 157.47 110.43 157.47C108.01 157.46 106.81 158.81 106.81 161.51Z" fill="white"/>
  <path d="M123.44 169.84V152.91H134.46C135.82 153.03 136.94 153.39 137.84 153.97C138.73 154.55 139.36 155.35 139.74 156.38C140.08 157.63 140.22 158.57 140.16 159.19C140.1 159.82 139.97 160.4 139.79 160.95C139.6 161.5 139.09 162.13 138.24 162.85C137.4 163.57 136.27 164.03 134.86 164.24H129.56V169.83H123.44V169.84ZM129.56 157.13V160.25H133.83C134.06 160.25 134.3 160.17 134.57 160C134.84 159.83 134.98 159.41 134.99 158.73C134.95 158.08 134.79 157.65 134.52 157.45C134.24 157.24 134.01 157.14 133.82 157.14H129.56V157.13Z" fill="white"/>
  <path d="M143.44 169.84V152.91H157.95V157.95H148.95V159.9H154.76V162.85H148.95V164.8H159.38V169.84H143.44Z" fill="white"/>
  <path d="M161.78 169.84V152.91H172.8C174.16 153.03 175.28 153.39 176.15 153.99C177.02 154.58 177.67 155.38 178.07 156.38C178.38 157.88 178.4 159.04 178.12 159.85C177.84 160.66 177.35 161.34 176.64 161.89C175.94 162.44 174.93 162.87 173.62 163.18L174.89 164.8H179.95V169.84H173.27L167.9 164.25V169.84H161.78ZM167.9 157.13V160.25H172.17C172.4 160.25 172.64 160.17 172.91 160C173.18 159.83 173.32 159.41 173.33 158.73C173.29 158.08 173.13 157.65 172.86 157.45C172.58 157.24 172.35 157.14 172.16 157.14H167.9V157.13Z" fill="white"/>
  <path d="M195.65 152.91H201.16V169.84H195.65V152.91Z" fill="white"/>
  <path d="M218.05 157.95H213.92C211.91 157.89 211.61 158.44 213.03 159.61C215.56 161.83 216.8 163.99 216.76 166.08C216.71 168.17 215.47 169.43 213.03 169.83H204.03V164.79H207.59C209.8 164.85 210.08 164.24 208.43 162.94C205.71 160.44 204.55 158.14 204.96 156.05C205.37 153.96 206.65 152.91 208.81 152.91H218.05V157.95Z" fill="white"/>
  <path d="M220.44 169.84V152.91H231.46C232.82 153.03 233.94 153.39 234.81 153.99C235.68 154.58 236.33 155.38 236.73 156.38C237.04 157.88 237.06 159.04 236.78 159.85C236.5 160.66 236.01 161.34 235.3 161.89C234.6 162.44 233.59 162.87 232.28 163.18L233.55 164.8H238.61V169.84H231.93L226.56 164.25V169.84H220.44ZM226.56 157.13V160.25H230.83C231.06 160.25 231.3 160.17 231.57 160C231.84 159.83 231.98 159.41 231.99 158.73C231.95 158.08 231.79 157.65 231.52 157.45C231.24 157.24 231.01 157.14 230.82 157.14H226.56V157.13Z" fill="white"/>
  <path d="M239.37 169.84L244.94 152.91H253.34L259 169.84H252.6L251.53 166.79H246.5L245.43 169.84H239.37ZM249.16 156.66L246.73 163.37H251.4L249.16 156.66Z" fill="white"/>
  <path d="M261.17 169.84V152.91H275.68V157.95H266.68V159.9H272.49V162.85H266.68V164.8H277.11V169.84H261.17Z" fill="white"/>
  <path d="M279.52 169.84V152.91H285.03V164.8H294.2V169.84H279.52Z" fill="white"/>
  <path d="M50.5101 25.2899V43.77H39.7702V87.6899C39.6002 92.4399 39.0802 95.7999 38.2202 97.7499C37.3602 99.6999 35.8302 101.53 33.6202 103.25C31.4102 104.97 28.6502 106.27 25.3302 107.16C22.0102 108.05 19.0002 108.64 16.3102 108.92C13.6202 109.21 8.12026 109.35 3.65027 109.35V90.8699C6.17026 90.9299 10.1102 90.8399 11.6302 90.6099C13.1502 90.3799 14.4402 90.0099 15.5002 89.4899C16.5602 88.9699 17.4202 88.2399 18.0802 87.2999C18.7402 86.3499 19.2402 84.59 19.5802 82.0099V25.2899H50.5101Z" fill="white"/>
  <path d="M179.71 87.3499V43.78H166.82V25.2999H216.32C221.28 25.2999 225.64 25.96 229.43 27.28C233.21 28.6 236.41 30.3699 239.01 32.6099C241.62 34.8399 243.79 37.8699 245.52 41.6799C247.25 45.4899 248.12 50.4499 248.12 56.5499C247.8 62.1899 246.86 66.99 245.28 70.95C243.7 74.9 241.61 78.03 239.01 80.32C236.4 82.61 233.22 84.39 229.45 85.65C225.68 86.91 220.96 87.48 215.29 87.37H179.71V87.3499ZM200.42 40.6799V71.88H212.24C214.9 71.88 217.05 71.31 218.69 70.18C220.32 69.05 221.66 67.6 222.69 65.84C223.72 64.08 224.38 60.91 224.67 56.32C224.58 52.14 224 49.0499 222.93 47.0599C221.86 45.0699 220.47 43.51 218.78 42.38C217.09 41.25 214.88 40.6799 212.16 40.6799H200.42Z" fill="white"/>
  <path d="M101.48 61.1099H115.04L108.54 41.6199L101.48 61.1099Z" fill="#B42535"/>
  <path d="M108.26 -9.15527e-05L58.0001 22.6599L69.0101 90.01L108.26 112.67L147.51 90.01L158.52 22.6599L108.26 -9.15527e-05ZM118.55 79.92L115.45 71.06H100.83L97.7301 79.92H80.0801L91.4301 45.3699H79.4001V30.7199H120.7L137.16 79.92H118.55Z" fill="#B42535"/>
  <path d="M257.22 25.2899H277.42V87.34H257.22V25.2899Z" fill="white"/>
  <path d="M8.06006 80.9199H3.06006V9.59H57.9601V14.59H8.06006V80.9199Z" fill="white"/>
  <path d="M57.9601 98.09H45.52V103.09H57.9601V98.09Z" fill="white"/>
  <path d="M293.77 103.09H158.49V98.09H288.77V14.59H158.49V9.59H293.77V103.09Z" fill="white"/>
</svg>
