<svg width="295" height="170" viewBox="0 0 295 170" fill="none" xmlns="http://www.w3.org/2000/svg">
  <path d="M16.55 123.1V128.14H13.62V140.12C13.57 141.42 13.43 142.33 13.2 142.86C12.97 143.39 12.55 143.89 11.95 144.36C11.35 144.83 10.59 145.18 9.68999 145.43C8.77999 145.67 7.95999 145.83 7.22999 145.91C6.49999 145.99 5.51999 146.03 4.29999 146.03V140.99C4.98999 141.01 5.53998 140.98 5.94998 140.92C6.35998 140.86 6.71998 140.76 6.99998 140.62C7.28998 140.48 7.51998 140.28 7.69998 140.02C7.87998 139.76 8.01999 139.28 8.10999 138.58V123.1H16.55Z" fill="white"/>
  <path d="M25.47 123.1V133.11C25.42 134.25 25.64 135.04 26.13 135.49C26.61 135.94 27.37 136.17 28.4 136.21C29.23 136.19 29.92 135.95 30.48 135.48C31.03 135.01 31.3 134.22 31.27 133.11V123.1H36.78V133.03C36.76 134.44 36.52 135.56 36.08 136.4C35.64 137.24 35.08 137.94 34.4 138.5C33.72 139.06 32.88 139.5 31.86 139.81C30.84 140.12 29.7 140.29 28.45 140.33C27.41 140.31 26.35 140.16 25.28 139.9C24.21 139.64 23.27 139.23 22.47 138.66C21.67 138.09 21.05 137.37 20.62 136.49C20.19 135.61 19.97 134.45 19.97 133.03V123.09H25.47V123.1Z" fill="white"/>
  <path d="M42.88 140.03V123.1H48.39L53.43 129.43V123.1H58.94V140.03H53.43L48.39 133.7V140.03H42.88Z" fill="white"/>
  <path d="M64.69 123.1H70.2V140.03H64.69V123.1Z" fill="white"/>
  <path d="M95.5 131.66C95.5 133.51 95.11 135.09 94.34 136.4C93.57 137.71 92.45 138.69 90.98 139.34C89.51 140 87.77 140.32 85.73 140.32C83.7 140.32 81.95 139.99 80.5 139.33C79.04 138.67 77.94 137.69 77.19 136.4C76.44 135.11 76.06 133.53 76.06 131.66C76.06 130.25 76.27 129 76.7 127.93C77.13 126.86 77.76 125.95 78.59 125.22C79.42 124.49 80.43 123.93 81.64 123.55C82.84 123.17 84.21 122.98 85.73 122.98C87.75 122.98 89.5 123.31 90.97 123.98C92.44 124.65 93.56 125.63 94.33 126.93C95.11 128.23 95.5 129.8 95.5 131.66ZM82.08 131.7C82.08 132.79 82.32 133.73 82.81 134.54C83.3 135.34 84.26 135.75 85.7 135.75C86.81 135.75 87.64 135.54 88.19 135.12C88.74 134.7 89.09 134.22 89.22 133.67C89.36 133.13 89.45 132.47 89.5 131.71C89.45 130.62 89.19 129.68 88.71 128.87C88.23 128.06 87.23 127.66 85.7 127.66C83.29 127.65 82.08 129 82.08 131.7Z" fill="white"/>
  <path d="M101.59 140.03V123.1H112.61C113.97 123.22 115.09 123.58 115.96 124.18C116.83 124.77 117.48 125.57 117.88 126.57C118.19 128.07 118.21 129.23 117.93 130.04C117.65 130.85 117.16 131.53 116.45 132.08C115.75 132.63 114.74 133.06 113.43 133.37L114.7 134.99H119.76V140.03H113.08L107.71 134.44V140.03H101.59ZM107.71 127.32V130.44H111.98C112.21 130.44 112.45 130.36 112.72 130.19C112.99 130.02 113.13 129.6 113.14 128.92C113.1 128.27 112.94 127.84 112.67 127.64C112.39 127.43 112.16 127.33 111.97 127.33H107.71V127.32Z" fill="white"/>
  <path d="M139.59 128.14V123.1H153.8L159.46 140.03H153.06L151.99 136.98H146.96L145.89 140.03H139.82L143.72 128.14H139.59ZM149.61 126.85L147.18 133.56H151.85L149.61 126.85Z" fill="white"/>
  <path d="M164.5 140.03V123.1H170.01L175.05 129.43V123.1H180.56V140.03H175.05L170.01 133.7V140.03H164.5Z" fill="white"/>
  <path d="M197.94 134.99V131.57H203.24V140.03H195.74C193.9 140.03 192.24 139.7 190.76 139.05C189.27 138.4 188.1 137.42 187.25 136.11C186.39 134.8 185.97 133.21 185.97 131.32C185.97 129.99 186.23 128.81 186.74 127.76C187.25 126.72 187.96 125.85 188.87 125.16C189.78 124.47 190.82 123.95 191.99 123.61C193.17 123.27 194.42 123.1 195.75 123.1H200.39H203.25V128.14H197.95C196.76 128.14 195.88 128.17 195.31 128.25C194.74 128.32 194.23 128.44 193.79 128.6C193.34 128.76 192.95 129.05 192.61 129.46C192.27 129.87 192.07 130.59 192.01 131.62C192.05 132.62 192.25 133.34 192.61 133.77C192.97 134.2 193.41 134.49 193.92 134.63C194.44 134.77 194.97 134.87 195.51 134.92C196.05 134.96 196.86 134.99 197.94 134.99Z" fill="white"/>
  <path d="M214.15 123.1V133.11C214.1 134.25 214.32 135.04 214.81 135.49C215.29 135.94 216.05 136.17 217.08 136.21C217.91 136.19 218.6 135.95 219.16 135.48C219.71 135.01 219.98 134.22 219.95 133.11V123.1H225.46V133.03C225.44 134.44 225.2 135.56 224.76 136.4C224.32 137.24 223.76 137.94 223.08 138.5C222.4 139.06 221.56 139.5 220.54 139.81C219.52 140.12 218.38 140.29 217.13 140.33C216.09 140.31 215.03 140.16 213.96 139.9C212.89 139.64 211.95 139.23 211.15 138.66C210.35 138.09 209.73 137.37 209.3 136.49C208.87 135.61 208.65 134.45 208.65 133.03V123.09H214.15V123.1Z" fill="white"/>
  <path d="M231.55 140.03V123.1H237.06V134.99H246.23V140.03H231.55Z" fill="white"/>
  <path d="M250.57 140.03L256.14 123.1H264.54L270.2 140.03H263.8L262.73 136.98H257.7L256.63 140.03H250.57ZM260.36 126.85L257.93 133.56H262.6L260.36 126.85Z" fill="white"/>
  <path d="M275.26 140.03V123.1H286.28C287.64 123.22 288.76 123.58 289.63 124.18C290.5 124.77 291.15 125.57 291.55 126.57C291.86 128.07 291.88 129.23 291.6 130.04C291.32 130.85 290.83 131.53 290.12 132.08C289.42 132.63 288.41 133.06 287.1 133.37L288.37 134.99H293.43V140.03H286.75L281.38 134.44V140.03H275.26ZM281.38 127.32V130.44H285.65C285.88 130.44 286.12 130.36 286.39 130.19C286.66 130.02 286.8 129.6 286.81 128.92C286.77 128.27 286.61 127.84 286.34 127.64C286.06 127.43 285.83 127.33 285.64 127.33H281.38V127.32Z" fill="white"/>
  <path d="M3.52 168.84V156.95H0V151.91H13.5C14.85 151.91 16.04 152.09 17.08 152.45C18.11 152.81 18.98 153.29 19.69 153.9C20.4 154.51 20.99 155.33 21.47 156.37C21.94 157.41 22.18 158.76 22.18 160.43C22.09 161.97 21.84 163.28 21.41 164.36C20.98 165.44 20.41 166.29 19.7 166.92C18.99 167.55 18.12 168.03 17.09 168.37C16.06 168.71 14.78 168.87 13.23 168.84H3.52ZM9.17 156.11V164.62H12.39C13.12 164.62 13.7 164.47 14.15 164.16C14.6 163.85 14.96 163.46 15.24 162.98C15.52 162.5 15.7 161.63 15.78 160.38C15.76 159.24 15.6 158.4 15.31 157.85C15.02 157.31 14.64 156.88 14.18 156.57C13.72 156.26 13.12 156.11 12.37 156.11H9.17Z" fill="white"/>
  <path d="M25.4 168.84V151.91H39.91V156.95H30.91V158.9H36.72V161.85H30.91V163.8H41.34V168.84H25.4V168.84Z" fill="white"/>
  <path d="M48.56 151.91L52.41 164.91L56.3 151.91H63.09L57.05 168.84H48.06L42.11 151.91H48.56Z" fill="white"/>
  <path d="M65.25 168.84V151.91H79.76V156.95H70.76V158.9H76.57V161.85H70.76V163.8H81.19V168.84H65.25V168.84Z" fill="white"/>
  <path d="M83.6 168.84V151.91H89.11V163.8H98.28V168.84H83.6Z" fill="white"/>
  <path d="M120.23 160.47C120.23 162.32 119.84 163.9 119.07 165.21C118.3 166.52 117.18 167.5 115.71 168.15C114.24 168.81 112.5 169.13 110.46 169.13C108.43 169.13 106.68 168.8 105.23 168.14C103.77 167.48 102.67 166.5 101.92 165.21C101.17 163.92 100.79 162.34 100.79 160.47C100.79 159.06 101 157.81 101.43 156.74C101.86 155.67 102.49 154.76 103.32 154.03C104.15 153.3 105.16 152.74 106.37 152.36C107.57 151.98 108.94 151.79 110.46 151.79C112.48 151.79 114.23 152.12 115.7 152.79C117.17 153.46 118.29 154.44 119.06 155.74C119.84 157.04 120.23 158.61 120.23 160.47ZM106.81 160.51C106.81 161.6 107.05 162.54 107.54 163.35C108.03 164.16 108.99 164.56 110.43 164.56C111.54 164.56 112.37 164.35 112.92 163.93C113.47 163.51 113.82 163.03 113.95 162.48C114.09 161.94 114.18 161.28 114.23 160.52C114.18 159.43 113.92 158.49 113.44 157.68C112.96 156.87 111.96 156.47 110.43 156.47C108.01 156.46 106.81 157.81 106.81 160.51Z" fill="white"/>
  <path d="M123.44 168.84V151.91H134.46C135.82 152.03 136.94 152.39 137.84 152.97C138.73 153.55 139.36 154.35 139.74 155.38C140.08 156.63 140.22 157.57 140.16 158.19C140.1 158.82 139.97 159.4 139.79 159.95C139.6 160.5 139.09 161.13 138.24 161.85C137.4 162.57 136.27 163.03 134.86 163.24H129.56V168.83H123.44V168.84ZM129.56 156.13V159.25H133.83C134.06 159.25 134.3 159.17 134.57 159C134.84 158.83 134.98 158.41 134.99 157.73C134.95 157.08 134.79 156.65 134.52 156.45C134.24 156.24 134.01 156.14 133.82 156.14H129.56V156.13Z" fill="white"/>
  <path d="M143.44 168.84V151.91H157.95V156.95H148.95V158.9H154.76V161.85H148.95V163.8H159.38V168.84H143.44V168.84Z" fill="white"/>
  <path d="M161.78 168.84V151.91H172.8C174.16 152.03 175.28 152.39 176.15 152.99C177.02 153.58 177.67 154.38 178.07 155.38C178.38 156.88 178.4 158.04 178.12 158.85C177.84 159.66 177.35 160.34 176.64 160.89C175.94 161.44 174.93 161.87 173.62 162.18L174.89 163.8H179.95V168.84H173.27L167.9 163.25V168.84H161.78ZM167.9 156.13V159.25H172.17C172.4 159.25 172.64 159.17 172.91 159C173.18 158.83 173.32 158.41 173.33 157.73C173.29 157.08 173.13 156.65 172.86 156.45C172.58 156.24 172.35 156.14 172.16 156.14H167.9V156.13Z" fill="white"/>
  <path d="M195.65 151.91H201.16V168.84H195.65V151.91Z" fill="white"/>
  <path d="M218.05 156.95H213.92C211.91 156.89 211.61 157.44 213.03 158.61C215.56 160.83 216.8 162.99 216.76 165.08C216.71 167.17 215.47 168.43 213.03 168.83H204.03V163.79H207.59C209.8 163.85 210.08 163.24 208.43 161.94C205.71 159.44 204.55 157.14 204.96 155.05C205.37 152.96 206.65 151.91 208.81 151.91H218.05V156.95Z" fill="white"/>
  <path d="M220.44 168.84V151.91H231.46C232.82 152.03 233.94 152.39 234.81 152.99C235.68 153.58 236.33 154.38 236.73 155.38C237.04 156.88 237.06 158.04 236.78 158.85C236.5 159.66 236.01 160.34 235.3 160.89C234.6 161.44 233.59 161.87 232.28 162.18L233.55 163.8H238.61V168.84H231.93L226.56 163.25V168.84H220.44ZM226.56 156.13V159.25H230.83C231.06 159.25 231.3 159.17 231.57 159C231.84 158.83 231.98 158.41 231.99 157.73C231.95 157.08 231.79 156.65 231.52 156.45C231.24 156.24 231.01 156.14 230.82 156.14H226.56V156.13Z" fill="white"/>
  <path d="M239.37 168.84L244.94 151.91H253.34L259 168.84H252.6L251.53 165.79H246.5L245.43 168.84H239.37ZM249.16 155.66L246.73 162.37H251.4L249.16 155.66Z" fill="white"/>
  <path d="M261.17 168.84V151.91H275.68V156.95H266.68V158.9H272.49V161.85H266.68V163.8H277.11V168.84H261.17V168.84Z" fill="white"/>
  <path d="M279.52 168.84V151.91H285.03V163.8H294.2V168.84H279.52Z" fill="white"/>
  <path d="M50.5101 24.29V42.77H39.7701V86.69C39.6001 91.44 39.0801 94.8 38.2201 96.75C37.3601 98.7 35.8301 100.53 33.6201 102.25C31.4101 103.97 28.6501 105.27 25.3301 106.16C22.0101 107.05 19.0001 107.64 16.3101 107.92C13.6201 108.21 8.12009 108.35 3.65009 108.35V89.87C6.17009 89.93 10.1101 89.84 11.6301 89.61C13.1501 89.38 14.4401 89.01 15.5001 88.49C16.5601 87.97 17.4201 87.24 18.0801 86.3C18.7401 85.35 19.2401 83.59 19.5801 81.01V24.29H50.5101V24.29Z" fill="white"/>
  <path d="M179.71 86.35V42.78H166.82V24.3H216.32C221.28 24.3 225.64 24.96 229.43 26.28C233.21 27.6 236.41 29.37 239.01 31.61C241.62 33.84 243.79 36.87 245.52 40.68C247.25 44.49 248.12 49.45 248.12 55.55C247.8 61.19 246.86 65.99 245.28 69.95C243.7 73.9 241.61 77.03 239.01 79.32C236.4 81.61 233.22 83.39 229.45 84.65C225.68 85.91 220.96 86.48 215.29 86.37H179.71V86.35ZM200.42 39.68V70.88H212.24C214.9 70.88 217.05 70.31 218.69 69.18C220.32 68.05 221.66 66.6 222.69 64.84C223.72 63.08 224.38 59.91 224.67 55.32C224.58 51.14 224 48.05 222.93 46.06C221.86 44.07 220.47 42.51 218.78 41.38C217.09 40.25 214.88 39.68 212.16 39.68H200.42Z" fill="white"/>
  <path d="M101.45 61.11H115.01L108.51 41.62L101.45 61.11Z" fill="white"/>
  <path d="M108.23 0L57.9701 22.66L68.9801 90.01L108.23 112.67L147.48 90.01L158.49 22.66L108.23 0ZM118.52 79.92L115.42 71.06H100.8L97.7001 79.92H80.0501L91.4001 45.37H79.3701V30.72H120.67L137.13 79.92H118.52V79.92Z" fill="white"/>
  <path d="M257.22 24.29H277.42V86.34H257.22V24.29Z" fill="white"/>
  <path d="M8.06006 79.92H3.06006V8.59003H57.9601V13.59H8.06006V79.92Z" fill="white"/>
  <path d="M57.9601 97.09H45.5201V102.09H57.9601V97.09Z" fill="white"/>
  <path d="M293.77 102.09H158.49V97.09H288.77V13.59H158.49V8.59003H293.77V102.09Z" fill="white"/>
</svg>
