<svg width="295" height="172" viewBox="0 0 295 172" fill="none" xmlns="http://www.w3.org/2000/svg">
  <path d="M16.55 125.42V130.46H13.62V142.44C13.57 143.74 13.43 144.65 13.2 145.18C12.97 145.71 12.55 146.21 11.95 146.68C11.35 147.15 10.59 147.5 9.69002 147.75C8.78003 147.99 7.96003 148.15 7.23003 148.23C6.50004 148.31 5.52004 148.35 4.30005 148.35V143.31C4.99005 143.33 5.54004 143.3 5.95003 143.24C6.36003 143.18 6.72003 143.08 7.00003 142.94C7.29003 142.8 7.52003 142.6 7.70003 142.34C7.88002 142.08 8.02003 141.6 8.11003 140.9V125.43H16.55V125.42Z" fill="black"/>
  <path d="M25.4699 125.42V135.43C25.4199 136.57 25.6399 137.36 26.1299 137.81C26.6099 138.26 27.3699 138.49 28.3999 138.53C29.2299 138.51 29.9199 138.27 30.4799 137.8C31.0299 137.33 31.2999 136.54 31.2699 135.43V125.42H36.7798V135.35C36.7598 136.76 36.5199 137.88 36.0799 138.72C35.6399 139.56 35.0799 140.26 34.3999 140.82C33.7199 141.38 32.8799 141.82 31.8599 142.13C30.8399 142.44 29.6999 142.61 28.4499 142.65C27.4099 142.63 26.3499 142.48 25.2799 142.22C24.2099 141.96 23.2699 141.55 22.47 140.98C21.67 140.41 21.05 139.69 20.62 138.81C20.19 137.93 19.97 136.77 19.97 135.35V125.41H25.4699V125.42Z" fill="black"/>
  <path d="M42.88 142.34V125.41H48.39L53.43 131.74V125.41H58.94V142.34H53.43L48.39 136.01V142.34H42.88Z" fill="black"/>
  <path d="M64.6902 125.42H70.2001V142.35H64.6902V125.42Z" fill="black"/>
  <path d="M95.5001 133.97C95.5001 135.82 95.1101 137.4 94.3401 138.71C93.5701 140.02 92.4501 141 90.9801 141.65C89.5101 142.31 87.7701 142.63 85.7301 142.63C83.7001 142.63 81.9501 142.3 80.5001 141.64C79.0401 140.98 77.9401 140 77.1901 138.71C76.4401 137.42 76.0601 135.84 76.0601 133.97C76.0601 132.56 76.2701 131.31 76.7001 130.24C77.1301 129.17 77.7601 128.26 78.5901 127.53C79.4201 126.8 80.4301 126.24 81.6401 125.86C82.8401 125.48 84.2101 125.29 85.7301 125.29C87.7501 125.29 89.5001 125.62 90.9701 126.29C92.4401 126.96 93.5601 127.94 94.3301 129.24C95.1101 130.55 95.5001 132.12 95.5001 133.97ZM82.0801 134.02C82.0801 135.11 82.3201 136.05 82.8101 136.86C83.3001 137.67 84.2601 138.07 85.7001 138.07C86.8101 138.07 87.6401 137.86 88.1901 137.44C88.7401 137.02 89.0901 136.54 89.2201 135.99C89.3601 135.45 89.4501 134.79 89.5001 134.03C89.4501 132.94 89.1901 132 88.7101 131.19C88.2301 130.38 87.2301 129.98 85.7001 129.98C83.2901 129.97 82.0801 131.32 82.0801 134.02Z" fill="black"/>
  <path d="M101.59 142.34V125.41H112.61C113.97 125.53 115.09 125.89 115.96 126.49C116.83 127.08 117.48 127.88 117.88 128.88C118.19 130.38 118.21 131.54 117.93 132.35C117.65 133.16 117.16 133.84 116.45 134.39C115.75 134.94 114.74 135.37 113.43 135.68L114.7 137.3H119.76V142.34H113.08L107.71 136.75V142.34H101.59V142.34ZM107.71 129.64V132.76H111.98C112.21 132.76 112.45 132.68 112.72 132.51C112.99 132.34 113.13 131.92 113.14 131.24C113.1 130.59 112.94 130.16 112.67 129.96C112.39 129.75 112.16 129.65 111.97 129.65H107.71V129.64Z" fill="black"/>
  <path d="M139.59 130.46V125.42H153.8L159.46 142.35H153.06L151.99 139.3H146.96L145.89 142.35H139.82L143.72 130.46H139.59ZM149.61 129.17L147.18 135.88H151.85L149.61 129.17Z" fill="black"/>
  <path d="M164.5 142.34V125.41H170.01L175.05 131.74V125.41H180.56V142.34H175.05L170.01 136.01V142.34H164.5Z" fill="black"/>
  <path d="M197.94 137.3V133.88H203.24V142.34H195.74C193.9 142.34 192.24 142.01 190.76 141.36C189.27 140.71 188.1 139.73 187.25 138.42C186.39 137.11 185.97 135.52 185.97 133.63C185.97 132.3 186.23 131.12 186.74 130.07C187.25 129.03 187.96 128.16 188.87 127.47C189.78 126.78 190.82 126.26 191.99 125.92C193.17 125.58 194.42 125.41 195.75 125.41H200.39H203.25V130.45H197.95C196.76 130.45 195.88 130.48 195.31 130.56C194.74 130.63 194.23 130.75 193.79 130.91C193.34 131.07 192.95 131.36 192.61 131.77C192.27 132.18 192.07 132.9 192.01 133.93C192.05 134.93 192.25 135.65 192.61 136.08C192.97 136.51 193.41 136.8 193.92 136.94C194.44 137.08 194.97 137.18 195.51 137.23C196.05 137.28 196.86 137.3 197.94 137.3Z" fill="black"/>
  <path d="M214.15 125.42V135.43C214.1 136.57 214.32 137.36 214.81 137.81C215.29 138.26 216.05 138.49 217.08 138.53C217.91 138.51 218.6 138.27 219.16 137.8C219.71 137.33 219.98 136.54 219.95 135.43V125.42H225.46V135.35C225.44 136.76 225.2 137.88 224.76 138.72C224.32 139.56 223.76 140.26 223.08 140.82C222.4 141.38 221.56 141.82 220.54 142.13C219.52 142.44 218.38 142.61 217.13 142.65C216.09 142.63 215.03 142.48 213.96 142.22C212.89 141.96 211.95 141.55 211.15 140.98C210.35 140.41 209.73 139.69 209.3 138.81C208.87 137.93 208.65 136.77 208.65 135.35V125.41H214.15V125.42Z" fill="black"/>
  <path d="M231.55 142.34V125.41H237.06V137.3H246.23V142.34H231.55Z" fill="black"/>
  <path d="M250.57 142.34L256.14 125.41H264.54L270.2 142.34H263.8L262.73 139.29H257.7L256.63 142.34H250.57ZM260.36 129.17L257.93 135.88H262.6L260.36 129.17Z" fill="black"/>
  <path d="M275.26 142.34V125.41H286.28C287.64 125.53 288.76 125.89 289.63 126.49C290.5 127.08 291.15 127.88 291.55 128.88C291.86 130.38 291.88 131.54 291.6 132.35C291.32 133.16 290.83 133.84 290.12 134.39C289.42 134.94 288.41 135.37 287.1 135.68L288.37 137.3H293.43V142.34H286.75L281.38 136.75V142.34H275.26V142.34ZM281.38 129.64V132.76H285.65C285.88 132.76 286.12 132.68 286.39 132.51C286.66 132.34 286.8 131.92 286.81 131.24C286.77 130.59 286.61 130.16 286.34 129.96C286.06 129.75 285.83 129.65 285.64 129.65H281.38V129.64Z" fill="black"/>
  <path d="M3.52 171.15V159.26H0V154.22H13.5C14.85 154.22 16.04 154.4 17.08 154.76C18.11 155.12 18.98 155.6 19.69 156.21C20.4 156.82 20.99 157.64 21.47 158.68C21.94 159.72 22.18 161.07 22.18 162.74C22.09 164.28 21.84 165.59 21.41 166.67C20.98 167.75 20.41 168.6 19.7 169.23C18.99 169.86 18.12 170.34 17.09 170.68C16.06 171.02 14.78 171.18 13.23 171.15H3.52V171.15ZM9.16999 158.42V166.93H12.39C13.12 166.93 13.7 166.78 14.15 166.47C14.6 166.16 14.96 165.77 15.24 165.29C15.52 164.81 15.7 163.94 15.78 162.69C15.76 161.55 15.6 160.71 15.31 160.16C15.02 159.61 14.64 159.19 14.18 158.88C13.72 158.57 13.12 158.42 12.37 158.42H9.16999V158.42Z" fill="black"/>
  <path d="M25.4 171.15V154.22H39.9101V159.26H30.9101V161.21H36.7201V164.16H30.9101V166.11H41.3401V171.15H25.4Z" fill="black"/>
  <path d="M48.56 154.23L52.41 167.23L56.3 154.23H63.09L57.05 171.16H48.06L42.11 154.23H48.56Z" fill="black"/>
  <path d="M65.25 171.15V154.22H79.76V159.26H70.76V161.21H76.57V164.16H70.76V166.11H81.19V171.15H65.25Z" fill="black"/>
  <path d="M83.6001 171.15V154.22H89.1101V166.11H98.28V171.15H83.6001Z" fill="black"/>
  <path d="M120.23 162.78C120.23 164.63 119.84 166.21 119.07 167.52C118.3 168.83 117.18 169.81 115.71 170.46C114.24 171.12 112.5 171.44 110.46 171.44C108.43 171.44 106.68 171.11 105.23 170.45C103.77 169.79 102.67 168.81 101.92 167.52C101.17 166.23 100.79 164.65 100.79 162.78C100.79 161.37 101 160.12 101.43 159.05C101.86 157.98 102.49 157.07 103.32 156.34C104.15 155.61 105.16 155.05 106.37 154.67C107.57 154.29 108.94 154.1 110.46 154.1C112.48 154.1 114.23 154.43 115.7 155.1C117.17 155.77 118.29 156.75 119.06 158.05C119.84 159.36 120.23 160.93 120.23 162.78ZM106.81 162.83C106.81 163.92 107.05 164.86 107.54 165.67C108.03 166.48 108.99 166.88 110.43 166.88C111.54 166.88 112.37 166.67 112.92 166.25C113.47 165.83 113.82 165.35 113.95 164.8C114.09 164.26 114.18 163.6 114.23 162.84C114.18 161.75 113.92 160.81 113.44 160C112.96 159.19 111.96 158.79 110.43 158.79C108.01 158.77 106.81 160.13 106.81 162.83Z" fill="black"/>
  <path d="M123.44 171.15V154.22H134.46C135.82 154.34 136.94 154.7 137.84 155.28C138.73 155.86 139.36 156.66 139.74 157.69C140.08 158.94 140.22 159.88 140.16 160.5C140.1 161.13 139.97 161.71 139.79 162.26C139.6 162.81 139.09 163.44 138.24 164.16C137.4 164.88 136.27 165.34 134.86 165.55H129.56V171.14H123.44V171.15ZM129.56 158.45V161.57H133.83C134.06 161.57 134.3 161.49 134.57 161.32C134.84 161.15 134.98 160.73 134.99 160.05C134.95 159.4 134.79 158.97 134.52 158.77C134.24 158.56 134.01 158.46 133.82 158.46H129.56V158.45Z" fill="black"/>
  <path d="M143.44 171.15V154.22H157.95V159.26H148.95V161.21H154.76V164.16H148.95V166.11H159.38V171.15H143.44Z" fill="black"/>
  <path d="M161.78 171.15V154.22H172.8C174.16 154.34 175.28 154.7 176.15 155.3C177.02 155.89 177.67 156.69 178.07 157.69C178.38 159.19 178.4 160.35 178.12 161.16C177.84 161.97 177.35 162.65 176.64 163.2C175.94 163.75 174.93 164.18 173.62 164.49L174.89 166.11H179.95V171.15H173.27L167.9 165.56V171.15H161.78V171.15ZM167.9 158.45V161.57H172.17C172.4 161.57 172.64 161.49 172.91 161.32C173.18 161.15 173.32 160.73 173.33 160.05C173.29 159.4 173.13 158.97 172.86 158.77C172.58 158.56 172.35 158.46 172.16 158.46H167.9V158.45Z" fill="black"/>
  <path d="M195.65 154.23H201.16V171.16H195.65V154.23Z" fill="black"/>
  <path d="M218.05 159.27H213.92C211.91 159.21 211.61 159.76 213.03 160.93C215.56 163.15 216.8 165.31 216.76 167.4C216.71 169.49 215.47 170.75 213.03 171.15H204.03V166.11H207.59C209.8 166.17 210.08 165.56 208.43 164.26C205.71 161.76 204.55 159.46 204.96 157.37C205.37 155.28 206.65 154.23 208.81 154.23H218.05V159.27Z" fill="black"/>
  <path d="M220.44 171.15V154.22H231.46C232.82 154.34 233.94 154.7 234.81 155.3C235.68 155.89 236.33 156.69 236.73 157.69C237.04 159.19 237.06 160.35 236.78 161.16C236.5 161.97 236.01 162.65 235.3 163.2C234.6 163.75 233.59 164.18 232.28 164.49L233.55 166.11H238.61V171.15H231.93L226.56 165.56V171.15H220.44V171.15ZM226.56 158.45V161.57H230.83C231.06 161.57 231.3 161.49 231.57 161.32C231.84 161.15 231.98 160.73 231.99 160.05C231.95 159.4 231.79 158.97 231.52 158.77C231.24 158.56 231.01 158.46 230.82 158.46H226.56V158.45Z" fill="black"/>
  <path d="M239.37 171.15L244.94 154.22H253.34L259 171.15H252.6L251.53 168.1H246.5L245.43 171.15H239.37ZM249.16 157.98L246.73 164.69H251.4L249.16 157.98Z" fill="black"/>
  <path d="M261.17 171.15V154.22H275.68V159.26H266.68V161.21H272.49V164.16H266.68V166.11H277.11V171.15H261.17Z" fill="black"/>
  <path d="M279.52 171.15V154.22H285.03V166.11H294.2V171.15H279.52Z" fill="black"/>
  <path d="M50.5101 24.29V42.77H39.7701V86.69C39.6001 91.44 39.0801 94.8 38.2201 96.75C37.3601 98.7 35.8301 100.53 33.6201 102.25C31.4101 103.97 28.6501 105.27 25.3301 106.16C22.0101 107.05 19.0001 107.64 16.3101 107.92C13.6201 108.21 8.12015 108.35 3.65015 108.35V89.87C6.17015 89.93 10.1101 89.84 11.6301 89.61C13.1501 89.38 14.4401 89.01 15.5001 88.49C16.5601 87.97 17.4201 87.24 18.0801 86.3C18.7401 85.35 19.2401 83.59 19.5801 81.01V24.29H50.5101V24.29Z" fill="black"/>
  <path d="M179.71 86.34V42.77H166.82V24.29H216.32C221.28 24.29 225.64 24.95 229.43 26.27C233.21 27.59 236.41 29.36 239.01 31.6C241.62 33.83 243.79 36.86 245.52 40.67C247.25 44.48 248.12 49.44 248.12 55.54C247.8 61.18 246.86 65.98 245.28 69.94C243.7 73.89 241.61 77.02 239.01 79.31C236.4 81.6 233.22 83.38 229.45 84.64C225.68 85.9 220.96 86.47 215.29 86.36H179.71V86.34ZM200.42 39.67V70.87H212.24C214.9 70.87 217.05 70.3 218.69 69.17C220.32 68.04 221.66 66.59 222.69 64.83C223.72 63.07 224.38 59.9 224.67 55.31C224.58 51.13 224 48.04 222.93 46.05C221.86 44.06 220.47 42.5 218.78 41.37C217.09 40.24 214.88 39.67 212.16 39.67H200.42Z" fill="black"/>
  <path d="M101.45 61.11H115.01L108.51 41.62L101.45 61.11Z" fill="black"/>
  <path d="M108.23 0L57.97 22.66L68.98 90.01L108.23 112.67L147.48 90.01L158.49 22.66L108.23 0ZM118.52 79.92L115.42 71.06H100.8L97.7 79.92H80.05L91.4 45.37H79.37V30.72H120.67L137.13 79.92H118.52Z" fill="black"/>
  <path d="M257.22 24.29H277.42V86.34H257.22V24.29Z" fill="black"/>
  <path d="M8.06006 79.92H3.06006V8.58002H57.9601V13.58H8.06006V79.92Z" fill="black"/>
  <path d="M57.96 97.08H45.52V102.08H57.96V97.08Z" fill="black"/>
  <path d="M293.77 102.08H158.49V97.08H288.77V13.58H158.49V8.58002H293.77V102.08Z" fill="black"/>
</svg>
